<svg width="336" height="204" viewBox="0 0 336 204" fill="none" xmlns="http://www.w3.org/2000/svg"><path d="M87.66 185.054l-.19 6.336 4.685 4.268-6.336-.19-4.268 4.686.19-6.336-4.686-4.268 6.336.19 4.268-4.686zM284.659 3.054l-.19 6.336 4.686 4.268-6.336-.19-4.268 4.686.19-6.336-4.686-4.268 6.336.19 4.268-4.686z" fill="#1241B2"/><path opacity=".4" d="M332.514 27.388c3.584 7.423 2.531 16.651-2.607 27.058-5.134 10.402-14.313 21.903-26.824 33.796-25.017 23.783-63.276 49.057-108.848 70.167-45.572 21.109-89.792 34.039-124.435 37.891-17.324 1.926-32.224 1.578-43.69-1.134-11.474-2.713-19.426-7.769-23.01-15.192-3.585-7.424-2.532-16.651 2.606-27.058 5.135-10.402 14.313-21.903 26.824-33.796 25.017-23.784 63.276-49.058 108.848-70.167 45.572-21.11 89.792-34.04 124.435-37.89 17.324-1.927 32.224-1.58 43.691 1.132 11.473 2.713 19.425 7.77 23.01 15.193z" stroke="#1241B2"/><path opacity=".1" d="M109.036 146.936c28.068 52.79 75.796 48.866 101.487 35.207 25.691-13.66 56.887-70.169 36.474-108.56-20.413-38.392-80.055-53.474-139.595-35.896-39.233 11.583-22.613 63.647 1.634 109.249z" fill="#1241B2"/></svg>