<svg width="268" height="271" viewBox="0 0 268 271" fill="none" xmlns="http://www.w3.org/2000/svg"><path d="M234.388 264.772c26.807-44.434-7.826-114.46-77.356-156.408-22.149-13.363-45.167-22.265-67.12-26.755" stroke="#014EDA" stroke-opacity=".2" stroke-dasharray="3 3"/><path d="M61.509 135.064c0-39.472 31.998-71.47 71.47-71.47 20.483 0 38.953 8.616 51.984 22.422" stroke="#014EDA" stroke-opacity=".2" stroke-dasharray="3 3"/><path d="M132.746 269.599c74.171 0 134.299-60.128 134.299-134.3C267.045 61.128 206.917 1 132.746 1 84.826 1 42.769 26.097 19 63.864" stroke="#1241B2"/><path d="M134.146 269.599c30.056 0 54.421-60.128 54.421-134.3C188.567 61.128 164.202 1 134.146 1" stroke="#1241B2"/><path d="M132.98 135.066l95.294-92.257" stroke="#005DDE" stroke-dasharray="3 3"/><path d="M.5 263.501L228.274 42.809M132.512 269.599V1" stroke="#014EDA" stroke-opacity=".2" stroke-dasharray="3 3"/><path d="M131.813 271a1.168 1.168 0 1 1 0-2.336 1.168 1.168 0 0 1 0 2.336zM184.598 86.484a1.168 1.168 0 1 1 0-2.336 1.168 1.168 0 0 1 0 2.336zM228.973 43.043a1.168 1.168 0 1 1 0-2.336 1.168 1.168 0 0 1 0 2.336zM132.446 65.66a2 2 0 1 1 0-4 2 2 0 0 1 0 4z" fill="#005DDE"/></svg>